# xmcd
#
# Track frame offsets:
#	150
#	14824
#	26103
#	38788
#	56277
#	74436
#	90359
#	103681
#	116505
#	131747
#
# Disc length: 1943 seconds
#
# Revision: 0
# Processed by: cddbd v1.4PL0 Copyright (c) Steve Scherf et al.
# Submitted via: dBpowerAMP V4.0
#
DISCID=8507950a
DTITLE=Eli and Young - Here's to You
DYEAR=1900
DGENRE=Country
TTITLE0=Her's to You
TTITLE1=Every Word I Say is True
TTITLE2=Can't Get Enough of a Good Thing
TTITLE3=Back of My Mind
TTITLE4=In San Antone
TTITLE5=Down on Padre
TTITLE6=Out in the Country
TTITLE7=Another Fool in Love
TTITLE8=I See Now
TTITLE9=Caught in a Moment
EXTD=The up and coming BEST Country Band in the land
EXTT0=
EXTT1=
EXTT2=
EXTT3=
EXTT4=
EXTT5=
EXTT6=
EXTT7=
EXTT8=
EXTT9=
PLAYORDER=
